<?xml version="1.0" encoding="UTF-8"?>
<svg id="Layer_1" data-name="Layer 1" xmlns="http://www.w3.org/2000/svg" viewBox="0 0 1000 200">
  <defs>
    <style>
      .cls-1 {
        stroke-width: 0px;
      }

      .cls-1, .cls-2 {
        fill: #fff;
      }

      .cls-2 {
        font-family: Kallisto-Bold, Kallisto;
        font-size: 166.56px;
        font-weight: 700;
      }
    </style>
  </defs>
  <g>
    <path class="cls-1" d="M133.02,160.01c19.08,0,37.81-.04,56.55.04,3.24.01,5.92-.92,7.97-3.36,1.54-1.84,1.94-4.18,2.32-6.47.11-.67.07-1.36.07-2.05,0-28.3,0-56.6,0-84.9,0-1.91,0-3.81-.69-5.66-.94-2.49-2.58-4.18-5.19-4.73-1.73-.36-3.5-.65-5.26-.67-6.29-.07-12.58,0-18.87-.02-4.24-.01-8.48-.08-12.71-.14-.54,0-1.1-.05-1.63-.16-.88-.19-1.44-.77-1.56-1.67-.11-.81-.16-1.63-.15-2.45.02-3.28,0-6.56.14-9.84.09-2.21.78-2.86,2.96-3.2.81-.13,1.63-.14,2.45-.15,10.67-.01,21.33,0,32-.02,6.76,0,12.55,2.49,17.39,7.06,4.87,4.59,7.55,10.31,7.74,17.05.13,4.64.04,9.29.04,13.94-.01,26.25-.04,52.5-.04,78.75,0,6.59-2.46,12.2-6.74,17.06-3.43,3.89-7.74,6.47-12.72,7.87-1.17.33-2.43.44-3.64.46-7.52.1-15.04.16-22.55.19-10.39.05-20.78.04-31.18.1-1.48,0-2.96.22-4.47.34-.46,1.06-.95,1.88-1.19,2.77-2.4,8.74-8.12,14.38-16.51,17.32-6.41,2.24-12.81,2.06-19.08-.85-8.84-4.1-14.1-10.92-15.84-20.49-1.44-7.93,1.02-14.75,5.69-21.06,4.27-5.78,10.28-8.75,17.03-9.53,11.22-1.29,20.34,2.8,26.55,12.56.36.57.69,1.16,1.14,1.91ZM108.54,182.43c1.47-.24,3.01-.28,4.39-.77,6.82-2.42,8.35-12.86,2.67-17.27-3.24-2.52-6.71-2.47-10.47-1.72-3.59.72-6.65,4.32-6.58,8.31.01.68.02,1.37,0,2.05-.17,4.83,5.52,10.18,9.98,9.4Z"/>
    <path class="cls-1" d="M72.06,95.64c2.08.41,3.84.66,5.54,1.12,3.07.83,5.89,2.18,8.13,4.52,1.6,1.68,3.32,3.28,4.74,5.1,2.65,3.42,6.06,4.82,10.33,4.75,7.52-.12,15.04-.06,22.56-.06,16.68-.02,33.37.13,50.05-.14,4.76-.08,9.05,4.3,9.16,9.03.14,5.87-3.68,8.49-8.16,8.75-3,.18-6.01,0-9.02,0-20.92-.01-41.84-.05-62.76,0-3.84,0-7.55-.32-11.27-1.51-2.98-.96-5.46-2.47-7.55-4.66-2.36-2.47-4.52-5.12-6.86-7.6-1.47-1.55-2.64-3.49-4.69-4.29-1.21.41-1.34,1.44-1.76,2.26-.87,1.7-1.64,3.46-2.6,5.11-1.32,2.27-3.03,4.23-5.3,5.61-1.98,1.2-3.95,2.45-6.02,3.47-4.03,1.98-8.28,2.27-12.75,1.93-7.63-.58-13.37-4.34-18.2-9.87-4.98-5.69-6.71-12.48-5.97-19.82,1.08-10.73,7.05-18.3,16.64-22.66,9.97-4.53,20.5-2.19,28.02,5.09,2.5,2.42,4.42,5.17,5.59,8.46.63,1.79,1.39,3.53,2.14,5.43ZM56.18,101.7c.1-5.8-4.28-10.17-10.38-10.34-5.73-.16-10.73,4.43-10.28,10.34.46,6.09,3.8,10.07,10.64,10.02,5.7-.04,9.69-2.92,10.01-10.02Z"/>
    <path class="cls-1" d="M104.48,53.69c-1.61-1.06-3.1-2-4.55-3-5.71-3.96-9.69-9.2-11.38-15.99-1.91-7.69-.64-14.91,3.75-21.51,5.2-7.8,12.42-12.04,21.92-12.18,10.56-.15,18.33,4.51,23.47,13.62,1.62,2.87,2.38,6.09,2.75,9.35.49,4.24.35,8.53-1.15,12.52-2.15,5.72-5.47,10.7-10.9,13.91-1.88,1.11-3.85,2.05-5.9,3.12-.82,3.48-.25,7.04-.33,10.56-.08,3.39-.39,6.82.75,10.1,1.53.74,3.06.39,4.53.39,14.77-.02,29.54-.08,44.31-.12,1.23,0,2.46.05,3.69.15,3.59.28,6.61,3.1,7.15,6.72.82,5.43-2.86,9.75-8.3,9.73-17.37-.08-34.74-.15-52.11.06-5.66.07-13.79-4.08-16.19-10.51-.69-1.84-1.05-3.68-1.08-5.59-.1-5.06-.11-10.12-.19-15.18-.03-2.03-.16-4.07-.25-6.16ZM114.91,37.54c.56-.11,2.08-.25,3.47-.73,4.72-1.64,7.65-8.23,5.74-12.84-1.62-3.9-4.72-6.01-8.83-6.24-4.35-.25-7.99,1.45-10.36,5.28-1.57,2.54-1.21,5.17-.23,7.86,1.5,4.12,4.93,6.66,10.21,6.67Z"/>
  </g>
  <text class="cls-2" transform="translate(264.63 165.63)"><tspan x="0" y="0">INVEXIS</tspan></text>
</svg>